<?xml version="1.0" encoding="UTF-8" standalone="no"?>
<svg
   xmlns:dc="http://purl.org/dc/elements/1.1/"
   xmlns:cc="http://creativecommons.org/ns#"
   xmlns:rdf="http://www.w3.org/1999/02/22-rdf-syntax-ns#"
   xmlns:svg="http://www.w3.org/2000/svg"
   xmlns="http://www.w3.org/2000/svg"
   xmlns:sodipodi="http://sodipodi.sourceforge.net/DTD/sodipodi-0.dtd"
   xmlns:inkscape="http://www.inkscape.org/namespaces/inkscape"
   inkscape:export-ydpi="576"
   inkscape:export-xdpi="576"
   inkscape:export-filename="D:\Project Real\Maret 1\export\filled line\png\20 - Empty folder.png"
   width="64pt"
   height="64pt"
   viewBox="0 0 22.577778 22.577778"
   version="1.1"
   id="svg831"
   inkscape:version="1.0 (4035a4fb49, 2020-05-01)"
   sodipodi:docname="21 - Code file.svg">
  <defs
     id="defs825">
    <pattern
       id="EMFhbasepattern"
       patternUnits="userSpaceOnUse"
       width="6"
       height="6"
       x="0"
       y="0" />
    <pattern
       id="EMFhbasepattern-9"
       patternUnits="userSpaceOnUse"
       width="6"
       height="6"
       x="0"
       y="0" />
    <pattern
       id="EMFhbasepattern-0"
       patternUnits="userSpaceOnUse"
       width="6"
       height="6"
       x="0"
       y="0" />
    <pattern
       id="EMFhbasepattern-7"
       patternUnits="userSpaceOnUse"
       width="6"
       height="6"
       x="0"
       y="0" />
    <pattern
       id="EMFhbasepattern-2"
       patternUnits="userSpaceOnUse"
       width="6"
       height="6"
       x="0"
       y="0" />
    <pattern
       id="EMFhbasepattern-98"
       patternUnits="userSpaceOnUse"
       width="6"
       height="6"
       x="0"
       y="0" />
    <pattern
       id="EMFhbasepattern-6"
       patternUnits="userSpaceOnUse"
       width="6"
       height="6"
       x="0"
       y="0" />
    <pattern
       id="EMFhbasepattern-01"
       patternUnits="userSpaceOnUse"
       width="6"
       height="6"
       x="0"
       y="0" />
    <pattern
       id="EMFhbasepattern-07"
       patternUnits="userSpaceOnUse"
       width="6"
       height="6"
       x="0"
       y="0" />
    <pattern
       id="EMFhbasepattern-8"
       patternUnits="userSpaceOnUse"
       width="6"
       height="6"
       x="0"
       y="0" />
    <pattern
       id="EMFhbasepattern-4"
       patternUnits="userSpaceOnUse"
       width="6"
       height="6"
       x="0"
       y="0" />
    <pattern
       id="EMFhbasepattern-40"
       patternUnits="userSpaceOnUse"
       width="6"
       height="6"
       x="0"
       y="0" />
    <pattern
       id="EMFhbasepattern-08"
       patternUnits="userSpaceOnUse"
       width="6"
       height="6"
       x="0"
       y="0" />
    <pattern
       id="EMFhbasepattern-04"
       patternUnits="userSpaceOnUse"
       width="6"
       height="6"
       x="0"
       y="0" />
    <pattern
       id="EMFhbasepattern-014"
       patternUnits="userSpaceOnUse"
       width="6"
       height="6"
       x="0"
       y="0" />
    <pattern
       id="EMFhbasepattern-27"
       patternUnits="userSpaceOnUse"
       width="6"
       height="6"
       x="0"
       y="0" />
    <pattern
       id="EMFhbasepattern-09"
       patternUnits="userSpaceOnUse"
       width="6"
       height="6"
       x="0"
       y="0" />
    <pattern
       id="EMFhbasepattern-5"
       patternUnits="userSpaceOnUse"
       width="6"
       height="6"
       x="0"
       y="0" />
    <pattern
       id="EMFhbasepattern-018"
       patternUnits="userSpaceOnUse"
       width="6"
       height="6"
       x="0"
       y="0" />
    <inkscape:path-effect
       effect="fillet_chamfer"
       id="path-effect1165"
       is_visible="true"
       lpeversion="1"
       satellites_param="F,0,0,1,0,0,0,1 @ F,0,0,1,0,1.4486321,0,1 @ F,0,0,1,0,0,0,1 @ F,0,0,1,0,0,0,1 @ F,0,0,1,0,1.1651536,0,1 @ F,0,0,1,0,0,0,1 @ F,0,0,1,0,0,0,1 @ F,0,0,1,0,0,0,1 @ F,0,0,1,0,0,0,1 @ F,0,0,1,0,0,0,1 @ F,0,0,1,0,0,0,1 @ F,0,0,1,0,0,0,1 @ F,0,0,1,0,0,0,1 @ F,0,0,1,0,0,0,1"
       unit="px"
       method="auto"
       mode="F"
       radius="0"
       chamfer_steps="1"
       flexible="false"
       use_knot_distance="true"
       apply_no_radius="true"
       apply_with_radius="true"
       only_selected="true"
       hide_knots="false" />
  </defs>
  <sodipodi:namedview
     id="base"
     pagecolor="#ffffff"
     bordercolor="#666666"
     borderopacity="1.0"
     inkscape:pageopacity="0.0"
     inkscape:pageshadow="2"
     inkscape:zoom="6.2578125"
     inkscape:cx="42.666667"
     inkscape:cy="42.666667"
     inkscape:document-units="pt"
     inkscape:current-layer="layer1"
     showgrid="false"
     units="pt"
     inkscape:window-width="1366"
     inkscape:window-height="705"
     inkscape:window-x="-8"
     inkscape:window-y="-8"
     inkscape:window-maximized="1"
     inkscape:pagecheckerboard="true"
     inkscape:showpageshadow="false"
     inkscape:object-paths="true"
     inkscape:snap-intersection-paths="true"
     inkscape:snap-smooth-nodes="true"
     inkscape:snap-midpoints="true"
     showguides="true"
     inkscape:snap-bbox="true"
     inkscape:bbox-nodes="true"
     inkscape:snap-nodes="false"
     inkscape:snap-global="true"
     inkscape:document-rotation="0">
    <inkscape:grid
       type="xygrid"
       id="grid1378" />
    <sodipodi:guide
       position="0.97013831,21.607643"
       orientation="78.000048,0"
       id="guide1380"
       inkscape:locked="false" />
    <sodipodi:guide
       position="0.97013831,0.97013129"
       orientation="0,78.000005"
       id="guide1382"
       inkscape:locked="false" />
    <sodipodi:guide
       position="21.607639,0.97013129"
       orientation="-78.000048,0"
       id="guide1384"
       inkscape:locked="false" />
    <sodipodi:guide
       position="21.607639,21.607643"
       orientation="0,-78.000005"
       id="guide1386"
       inkscape:locked="false" />
  </sodipodi:namedview>
  <metadata
     id="metadata828">
    <rdf:RDF>
      <cc:Work
         rdf:about="">
        <dc:format>image/svg+xml</dc:format>
        <dc:type
           rdf:resource="http://purl.org/dc/dcmitype/StillImage" />
        <dc:title></dc:title>
      </cc:Work>
    </rdf:RDF>
  </metadata>
  <g
     inkscape:label="Icon"
     inkscape:groupmode="layer"
     id="layer1"
     transform="translate(0,-274.42223)">
    <g
       transform="matrix(1.2999858,0,0,1.2999858,79.588743,-89.377998)"
       style="display:inline;stroke-width:0.769239"
       id="g1385">
      <g
         style="stroke-width:0.769239"
         id="g1370">
        <path
           id="path1396"
           d="m -58.683594,280.5957 c -0.696011,0 -1.263672,0.56962 -1.263672,1.26563 v 13.3457 c 0,0.69601 0.567661,1.26367 1.263672,1.26367 l 10.652344,-0.002 a 0.26460996,0.26460996 0 0 0 0.263672,-0.26367 l -0.0098,-11.96289 a 0.26460996,0.26460996 0 0 0 -0.06445,-0.17383 l -2.939453,-3.38086 a 0.26460996,0.26460996 0 0 0 -0.199219,-0.0918 z"
           style="color:#000000;font-style:normal;font-variant:normal;font-weight:normal;font-stretch:normal;font-size:medium;line-height:normal;font-family:sans-serif;font-variant-ligatures:normal;font-variant-position:normal;font-variant-caps:normal;font-variant-numeric:normal;font-variant-alternates:normal;font-variant-east-asian:normal;font-feature-settings:normal;font-variation-settings:normal;text-indent:0;text-align:start;text-decoration:none;text-decoration-line:none;text-decoration-style:solid;text-decoration-color:#000000;letter-spacing:normal;word-spacing:normal;text-transform:none;writing-mode:lr-tb;direction:ltr;text-orientation:mixed;dominant-baseline:auto;baseline-shift:baseline;text-anchor:start;white-space:normal;shape-padding:0;shape-margin:0;inline-size:0;clip-rule:nonzero;display:inline;overflow:visible;visibility:visible;isolation:auto;mix-blend-mode:normal;color-interpolation:sRGB;color-interpolation-filters:linearRGB;solid-color:#000000;solid-opacity:1;vector-effect:none;fill:#f9f9f9;fill-opacity:1;fill-rule:nonzero;stroke:none;stroke-width:0.407056;stroke-linecap:round;stroke-linejoin:round;stroke-miterlimit:4;stroke-dasharray:none;stroke-dashoffset:0;stroke-opacity:1;color-rendering:auto;image-rendering:auto;shape-rendering:auto;text-rendering:auto;enable-background:accumulate;stop-color:#000000" />
        <path
           id="path1139"
           style="color:#000000;font-style:normal;font-variant:normal;font-weight:normal;font-stretch:normal;font-size:medium;line-height:normal;font-family:sans-serif;font-variant-ligatures:normal;font-variant-position:normal;font-variant-caps:normal;font-variant-numeric:normal;font-variant-alternates:normal;font-variant-east-asian:normal;font-feature-settings:normal;font-variation-settings:normal;text-indent:0;text-align:start;text-decoration:none;text-decoration-line:none;text-decoration-style:solid;text-decoration-color:#000000;letter-spacing:normal;word-spacing:normal;text-transform:none;writing-mode:lr-tb;direction:ltr;text-orientation:mixed;dominant-baseline:auto;baseline-shift:baseline;text-anchor:start;white-space:normal;shape-padding:0;shape-margin:0;inline-size:0;clip-rule:nonzero;display:inline;overflow:visible;visibility:visible;isolation:auto;mix-blend-mode:normal;color-interpolation:sRGB;color-interpolation-filters:linearRGB;solid-color:#000000;solid-opacity:1;vector-effect:none;fill:#cccccc;fill-opacity:1;fill-rule:nonzero;stroke:none;stroke-width:0.407056;stroke-linecap:round;stroke-linejoin:round;stroke-miterlimit:4;stroke-dasharray:none;stroke-dashoffset:0;stroke-opacity:1;color-rendering:auto;image-rendering:auto;shape-rendering:auto;text-rendering:auto;enable-background:accumulate;stop-color:#000000"
           d="m -48.306613,283.71295 0.004,4.77786 a 1.4474228,1.4474228 134.97607 0 1 -1.447422,1.44863 h -1.788897 c -0.970413,0 -1.767851,0.79993 -1.767851,1.7694 v 3.06664 a 1.1653509,1.1653509 134.99515 0 1 -1.165154,1.16535 l -4.740947,8e-4 c -0.211732,0 -0.408331,-0.0577 -0.583943,-0.15038 0.212024,0.40165 0.628835,0.67955 1.11311,0.67955 l 5.376934,-10e-4 5.275646,-0.001 c 0.145315,-5.8e-4 0.26297,-0.11824 0.263552,-0.26355 l -0.0052,-6.26577 -0.0047,-5.69732 c 9.5e-5,-0.0638 -0.02285,-0.12543 -0.0646,-0.17364 z"
           inkscape:path-effect="#path-effect1165"
           inkscape:original-d="m -48.306613,283.71295 0.0052,6.22649 h -3.237529 c -0.970413,0 -1.767851,0.79993 -1.767851,1.7694 v 4.23179 l -5.906101,10e-4 c -0.211732,0 -0.408331,-0.0577 -0.583943,-0.15038 0.212024,0.40165 0.628835,0.67955 1.11311,0.67955 l 5.376934,-10e-4 5.275646,-0.001 c 0.145315,-5.8e-4 0.26297,-0.11824 0.263552,-0.26355 l -0.0052,-6.26577 -0.0047,-5.69732 c 9.5e-5,-0.0638 -0.02285,-0.12543 -0.0646,-0.17364 z" />
        <path
           id="path1410"
           d="m -51.539062,290.44336 c -0.696008,0 -1.263672,0.56961 -1.263672,1.26562 v 3.49805 c 0,0.69601 0.567664,1.26367 1.263672,1.26367 h 5.144531 c 0.696008,0 1.263672,-0.56766 1.263672,-1.26367 v -3.49805 c 0,-0.69601 -0.567664,-1.26562 -1.263672,-1.26562 z"
           style="color:#000000;font-style:normal;font-variant:normal;font-weight:normal;font-stretch:normal;font-size:medium;line-height:normal;font-family:sans-serif;font-variant-ligatures:normal;font-variant-position:normal;font-variant-caps:normal;font-variant-numeric:normal;font-variant-alternates:normal;font-variant-east-asian:normal;font-feature-settings:normal;font-variation-settings:normal;text-indent:0;text-align:start;text-decoration:none;text-decoration-line:none;text-decoration-style:solid;text-decoration-color:#000000;letter-spacing:normal;word-spacing:normal;text-transform:none;writing-mode:lr-tb;direction:ltr;text-orientation:mixed;dominant-baseline:auto;baseline-shift:baseline;text-anchor:start;white-space:normal;shape-padding:0;shape-margin:0;inline-size:0;clip-rule:nonzero;display:inline;overflow:visible;visibility:visible;isolation:auto;mix-blend-mode:normal;color-interpolation:sRGB;color-interpolation-filters:linearRGB;solid-color:#000000;solid-opacity:1;vector-effect:none;fill:#3a4d5c;fill-opacity:1;fill-rule:nonzero;stroke:none;stroke-width:0.407056;stroke-linecap:round;stroke-linejoin:round;stroke-miterlimit:4;stroke-dasharray:none;stroke-dashoffset:0;stroke-opacity:1;color-rendering:auto;image-rendering:auto;shape-rendering:auto;text-rendering:auto;enable-background:accumulate;stop-color:#000000" />
        <path
           transform="matrix(0.26458334,0,0,0.26458334,0,280.06666)"
           d="m -194.79297,39.21875 c -2.63058,0 -4.77734,2.152614 -4.77734,4.783203 v 2.001953 h 28.99609 v -2.001953 c 0,-2.630589 -2.14481,-4.783203 -4.77539,-4.783203 z"
           style="color:#000000;font-style:normal;font-variant:normal;font-weight:normal;font-stretch:normal;font-size:medium;line-height:normal;font-family:sans-serif;font-variant-ligatures:normal;font-variant-position:normal;font-variant-caps:normal;font-variant-numeric:normal;font-variant-alternates:normal;font-variant-east-asian:normal;font-feature-settings:normal;font-variation-settings:normal;text-indent:0;text-align:start;text-decoration:none;text-decoration-line:none;text-decoration-style:solid;text-decoration-color:#000000;letter-spacing:normal;word-spacing:normal;text-transform:none;writing-mode:lr-tb;direction:ltr;text-orientation:mixed;dominant-baseline:auto;baseline-shift:baseline;text-anchor:start;white-space:normal;shape-padding:0;shape-margin:0;inline-size:0;clip-rule:nonzero;display:inline;overflow:visible;visibility:visible;isolation:auto;mix-blend-mode:normal;color-interpolation:sRGB;color-interpolation-filters:linearRGB;solid-color:#000000;solid-opacity:1;vector-effect:none;fill:#50b86b;fill-opacity:1;fill-rule:nonzero;stroke:none;stroke-width:1.53848;stroke-linecap:round;stroke-linejoin:round;stroke-miterlimit:4;stroke-dasharray:none;stroke-dashoffset:0;stroke-opacity:1;color-rendering:auto;image-rendering:auto;shape-rendering:auto;text-rendering:auto;enable-background:accumulate;stop-color:#000000"
           id="path1424" />
        <path
           transform="matrix(0.26458334,0,0,0.26458334,0,280.06666)"
           d="m -193.57617,2 v 14.003906 c 0.002,0.552454 0.45145,0.998211 1.0039,0.996094 h 11.99805 l -0.002,-1.21875 A 1.0001006,1.0001006 0 0 0 -180.82031,15.125 L -191.92969,2.3457031 A 1.0001006,1.0001006 0 0 0 -192.68164,2 Z"
           style="color:#000000;font-style:normal;font-variant:normal;font-weight:normal;font-stretch:normal;font-size:medium;line-height:normal;font-family:sans-serif;font-variant-ligatures:normal;font-variant-position:normal;font-variant-caps:normal;font-variant-numeric:normal;font-variant-alternates:normal;font-variant-east-asian:normal;font-feature-settings:normal;font-variation-settings:normal;text-indent:0;text-align:start;text-decoration:none;text-decoration-line:none;text-decoration-style:solid;text-decoration-color:#000000;letter-spacing:normal;word-spacing:normal;text-transform:none;writing-mode:lr-tb;direction:ltr;text-orientation:mixed;dominant-baseline:auto;baseline-shift:baseline;text-anchor:start;white-space:normal;shape-padding:0;shape-margin:0;inline-size:0;clip-rule:nonzero;display:inline;overflow:visible;visibility:visible;isolation:auto;mix-blend-mode:normal;color-interpolation:sRGB;color-interpolation-filters:linearRGB;solid-color:#000000;solid-opacity:1;vector-effect:none;fill:#dbdbdb;fill-opacity:1;fill-rule:nonzero;stroke:none;stroke-width:1.53848;stroke-linecap:round;stroke-linejoin:round;stroke-miterlimit:4;stroke-dasharray:none;stroke-dashoffset:0;stroke-opacity:1;color-rendering:auto;image-rendering:auto;shape-rendering:auto;text-rendering:auto;enable-background:accumulate;stop-color:#000000"
           id="path1382" />
      </g>
      <path
         sodipodi:nodetypes="sssscscsssscccccscccccscccccsccscccsccscccsccscccccccccsssssssssssccscccccccccssssccccccccccccccccccccccccccccccccccccc"
         d="m -58.68324,280.59583 c -0.69601,0 -1.263488,0.56955 -1.263488,1.26556 v 13.34543 c 0,0.69601 0.567478,1.26401 1.263488,1.26401 h 5.349544 c 0.146125,5.8e-4 0.265047,-0.11742 0.265616,-0.26355 5.29e-4,-0.14693 -0.118682,-0.26619 -0.265616,-0.26562 h -5.349544 c -0.412001,0 -0.734322,-0.32284 -0.734322,-0.73484 v -13.34543 c 0,-0.412 0.322321,-0.73639 0.734322,-0.73639 h 7.466727 v 3.17603 c 5.29e-4,0.14617 0.119446,0.26411 0.265618,0.26355 h 2.644799 v 5.02708 c 2.65e-4,0.14633 0.11929,0.26464 0.265618,0.26407 0.145521,-5.8e-4 0.263266,-0.11855 0.263549,-0.26407 v -5.34954 c 9.5e-5,-0.0638 -0.02283,-0.12543 -0.06459,-0.17363 l -2.939355,-3.38119 c -0.05012,-0.0579 -0.122878,-0.0913 -0.199472,-0.0915 z m 7.995894,1.00562 2.115116,2.43396 h -2.115116 z m -7.671882,1.37511 c -0.146934,-5.8e-4 -0.266192,0.11869 -0.265618,0.26562 5.29e-4,0.14613 0.119491,0.26412 0.265618,0.26355 h 5.291148 c 0.145319,-5.6e-4 0.262985,-0.11823 0.263551,-0.26355 5.29e-4,-0.14613 -0.117425,-0.26505 -0.263551,-0.26562 z m 0,2.11719 c -0.146127,-5.9e-4 -0.265049,0.11742 -0.265618,0.26355 -5.29e-4,0.14693 0.118684,0.26619 0.265618,0.26561 h 6.35 c 0.146124,-5.8e-4 0.26412,-0.11949 0.263548,-0.26561 -5.29e-4,-0.14532 -0.118229,-0.26299 -0.263548,-0.26355 z m 0,2.11718 c -0.146127,-5.8e-4 -0.265049,0.11742 -0.265618,0.26355 -5.29e-4,0.14693 0.118684,0.26619 0.265618,0.26562 h 8.994283 c 0.146934,5.8e-4 0.266189,-0.11869 0.265615,-0.26562 -5.29e-4,-0.14613 -0.119491,-0.26412 -0.265615,-0.26355 z m 0,2.11512 c -0.146934,-5.9e-4 -0.266192,0.11868 -0.265618,0.26561 2.64e-4,0.14633 0.11929,0.26464 0.265618,0.26407 h 7.408333 c 0.145521,-5.8e-4 0.263266,-0.11855 0.263549,-0.26407 5.29e-4,-0.14612 -0.117425,-0.26504 -0.263549,-0.26561 z m 6.820254,1.11724 c -0.696007,0 -1.265555,0.56955 -1.265555,1.26556 v 3.49797 c 0,0.69601 0.569548,1.26401 1.265555,1.26401 h 5.142839 c 0.696008,0 1.265555,-0.568 1.265555,-1.26401 v -3.49797 c 0,-0.69601 -0.569547,-1.26556 -1.265555,-1.26556 z m 0,0.52917 h 5.142839 c 0.412007,0 0.736389,0.32439 0.736389,0.73639 h -6.6151 c 0,-0.412 0.323868,-0.73639 0.735872,-0.73639 z m -6.820254,0.47077 c -0.146934,-5.8e-4 -0.266192,0.11868 -0.265618,0.26562 2.64e-4,0.14633 0.11929,0.26464 0.265618,0.26406 h 3.173965 c 0.146328,5.9e-4 0.265332,-0.11773 0.265618,-0.26406 5.29e-4,-0.14694 -0.118684,-0.2662 -0.265618,-0.26562 z m 6.084382,0.7953 h 6.6151 v 2.96829 c 0,0.41201 -0.324382,0.73484 -0.736389,0.73484 h -5.142839 c -0.412004,0 -0.735872,-0.32283 -0.735872,-0.73484 z m 4.575961,0.60514 c -0.103989,0.10344 -0.103989,0.27174 0,0.37517 l 0.871265,0.87127 -0.871265,0.87075 c -0.103989,0.10344 -0.103989,0.27173 0,0.37517 0.103439,0.10399 0.271732,0.10399 0.375171,0 l 1.056267,-1.05885 c 0.10363,-0.10339 0.10363,-0.27127 0,-0.37466 l -1.056267,-1.05885 c -0.180237,-0.10682 -0.198374,-0.0756 -0.375171,0 z m -2.91043,-10e-6 -1.058334,1.05885 c -0.103629,0.10339 -0.103629,0.27127 0,0.37466 l 1.058334,1.05885 c 0.103203,0.10261 0.269901,0.10261 0.373105,0 0.103989,-0.10344 0.103989,-0.27174 0,-0.37518 l -0.87075,-0.87074 0.87075,-0.87127 c 0.103989,-0.10344 0.103989,-0.27173 0,-0.37517 -0.150361,-0.11147 -0.235903,-0.0586 -0.373105,0 z m 2.024684,-0.076 c -0.104658,0.005 -0.196262,0.0721 -0.233579,0.17001 l -0.792716,2.11719 c -0.05202,0.13685 0.01699,0.28993 0.153996,0.34158 0.136993,0.0508 0.289216,-0.0191 0.340032,-0.15607 l 0.794782,-2.11563 c 0.05181,-0.13744 -0.01826,-0.29078 -0.156062,-0.34158 -0.03693,-0.0171 -0.07155,-0.0104 -0.106458,-0.0155 z m -9.774597,0.79275 c -0.146328,-5.8e-4 -0.265333,0.11774 -0.265618,0.26407 -5.29e-4,0.14693 0.118684,0.26619 0.265618,0.26562 h 4.498432 c 0.146124,-5.9e-4 0.264121,-0.11949 0.263549,-0.26562 -2.65e-4,-0.14552 -0.118028,-0.2635 -0.263549,-0.26407 z"
         style="color:#000000;font-style:normal;font-variant:normal;font-weight:normal;font-stretch:normal;font-size:medium;line-height:normal;font-family:sans-serif;font-variant-ligatures:normal;font-variant-position:normal;font-variant-caps:normal;font-variant-numeric:normal;font-variant-alternates:normal;font-variant-east-asian:normal;font-feature-settings:normal;font-variation-settings:normal;text-indent:0;text-align:start;text-decoration:none;text-decoration-line:none;text-decoration-style:solid;text-decoration-color:#000000;letter-spacing:normal;word-spacing:normal;text-transform:none;writing-mode:lr-tb;direction:ltr;text-orientation:mixed;dominant-baseline:auto;baseline-shift:baseline;text-anchor:start;white-space:normal;shape-padding:0;shape-margin:0;inline-size:0;clip-rule:nonzero;display:inline;overflow:visible;visibility:visible;isolation:auto;mix-blend-mode:normal;color-interpolation:sRGB;color-interpolation-filters:linearRGB;solid-color:#000000;solid-opacity:1;vector-effect:none;fill:#000000;fill-opacity:1;fill-rule:nonzero;stroke:none;stroke-width:0.407056;stroke-linecap:round;stroke-linejoin:round;stroke-miterlimit:4;stroke-dasharray:none;stroke-dashoffset:0;stroke-opacity:1;color-rendering:auto;image-rendering:auto;shape-rendering:auto;text-rendering:auto;enable-background:accumulate;stop-color:#000000"
         id="path1281-0" />
    </g>
  </g>
</svg>
